<svg xmlns="http://www.w3.org/2000/svg" viewBox="0 0 228 84">
  <path fill="#481493" stroke="#232323" stroke-miterlimit="10" stroke-width="2" d="M42.204 37.135h28.281v33.146C62.928 77.838 52.885 82 42.204 82c-10.681 0-20.724-4.162-28.281-11.719C6.366 62.724 2.204 52.681 2.204 42c0-10.681 4.162-20.724 11.719-28.281C21.48 6.162 31.523 2 42.204 2c10.681 0 20.724 4.162 28.281 11.719l-6.876 6.875c-5.719-5.719-13.319-8.865-21.405-8.865s-15.686 3.146-21.405 8.865c-5.719 5.72-8.865 13.32-8.865 21.406 0 8.087 3.146 15.687 8.865 21.405 5.719 5.719 13.319 8.865 21.405 8.865 6.8 0 13.265-2.228 18.552-6.357V46.865H42.204v-9.73z"/>
  <path fill="#4C13A5" stroke="#232323" stroke-miterlimit="10" d="M98.358 63.245c0 5.651-3.996 9.61-9.611 9.61-5.651 0-9.611-3.959-9.611-9.61 0-5.615 3.959-9.539 9.611-9.539 5.615.001 9.611 3.924 9.611 9.539zm-16.414.036c0 4.248 2.808 7.127 6.803 7.127 3.959 0 6.803-2.879 6.803-7.127 0-4.175-2.844-7.091-6.803-7.091-3.996 0-6.803 2.916-6.803 7.091zm28.691-2.448v2.052h-8.459v-2.052h8.459zm10.62-4.787c-2.124 0-3.743.756-3.743 2.556 0 4.283 10.583 2.087 10.583 8.891 0 3.708-3.312 5.363-6.947 5.363-2.7 0-5.471-.936-7.271-2.663l1.08-2.052c1.62 1.512 4.067 2.412 6.299 2.412s4.032-.864 4.068-2.771c.108-4.607-10.511-2.268-10.475-8.963 0-3.6 3.132-5.147 6.587-5.147 2.268 0 4.463.684 6.047 1.728l-1.08 2.16c-1.476-.938-3.384-1.514-5.148-1.514zm27.79 8.279h-15.478c.468 3.744 3.167 6.191 6.875 6.191 2.34 0 4.391-.864 5.867-2.412l1.548 1.62c-1.8 1.979-4.463 3.131-7.631 3.131-5.579 0-9.431-3.923-9.431-9.574s3.888-9.539 9.395-9.575c6.119.001 9.143 4.212 8.855 10.619zm-2.52-2.232c-.18-3.671-2.627-6.047-6.335-6.047-3.636 0-6.228 2.376-6.623 6.047h12.958zm19.116 10.655v-2.952c-1.512 2.051-3.923 3.059-6.947 3.059-3.924 0-6.443-2.483-6.443-5.723 0-3.312 2.627-5.399 7.091-5.436h6.227V60.51c0-2.772-1.728-4.464-5.075-4.464-2.088 0-4.032.792-6.012 2.196l-1.188-1.979c2.448-1.62 4.5-2.556 7.739-2.556 4.68 0 7.271 2.483 7.307 6.515l.036 12.526h-2.735zm-.035-6.515v-2.304h-5.903c-3.168 0-4.824.972-4.824 3.096 0 2.087 1.692 3.491 4.355 3.491 3.204 0 5.652-1.583 6.372-4.283zm18.648-12.526v2.735c-3.996-.072-6.479 2.412-6.803 6.228v10.079h-2.808V53.814h2.808v4.211c1.259-2.771 3.599-4.283 6.803-4.318zm11.376 2.519c-3.923 0-6.731 2.88-6.731 7.055 0 4.211 2.808 7.091 6.731 7.091 2.484 0 4.536-.864 5.867-2.448l1.62 1.656c-1.691 2.052-4.319 3.275-7.595 3.275-5.507 0-9.395-3.923-9.395-9.574 0-5.615 3.924-9.575 9.395-9.575 3.06 0 5.579 1.044 7.307 2.808l-1.548 1.944c-1.44-1.404-3.348-2.232-5.651-2.232zm30.166 4.859v11.663h-2.808V61.806c0-3.384-2.016-5.399-5.363-5.399-4.032.036-6.407 2.916-6.407 7.055v9.287h-2.808V46.04h2.808v12.022c1.296-2.952 3.888-4.32 7.379-4.355 4.536 0 7.199 2.771 7.199 7.378z"/>
</svg>
