<svg xmlns="http://www.w3.org/2000/svg" viewBox="0 0 90 90">
  <path fill="#481493" stroke="#232323" stroke-miterlimit="10" stroke-width="2" d="M50.859 40.135H79.14v33.146C71.584 80.838 61.541 85 50.859 85c-10.681 0-20.724-4.162-28.281-11.719-7.557-7.557-11.719-17.6-11.719-28.281 0-10.681 4.162-20.724 11.719-28.281C30.135 9.162 40.179 5 50.859 5 61.54 5 71.583 9.162 79.14 16.719l-6.876 6.875c-5.719-5.719-13.319-8.865-21.405-8.865s-15.686 3.146-21.405 8.865c-5.719 5.72-8.865 13.32-8.865 21.406 0 8.087 3.146 15.687 8.865 21.405 5.719 5.719 13.319 8.865 21.405 8.865 6.8 0 13.265-2.228 18.552-6.357V49.865H50.859v-9.73z"/>
</svg>
